# xmcd CD database file
#
# Track frame offsets:
#	151
#	36495
#	76996
#	106104
#	132645
#	160102
#	199478
#
# Disc length: 3122 seconds
#
# Revision: 0
# Processed by: cddbd v1.5.1PL0 Copyright (c) Steve Scherf et al.
# Submitted via: CDex 1.50
#
DISCID=5d0c3007
DTITLE=Jérôme Berney Quartet - Rêveries
DYEAR=1998
DGENRE=Jazz
TTITLE0=Alexandra
TTITLE1=La Butte Montmartre
TTITLE2=Cinq
TTITLE3=Chemin andalou
TTITLE4=Ramona's delight
TTITLE5=Malcolm B
TTITLE6=Rêveries
EXTD=YEAR: 1998
EXTT0=
EXTT1=
EXTT2=
EXTT3=
EXTT4=
EXTT5=
EXTT6=
PLAYORDER=
